<svg width="18" height="18" viewBox="0 0 18 18" fill="none" xmlns="http://www.w3.org/2000/svg">
<path d="M16.0749 0.895656L0.895669 16.0749C0.401004 16.5695 0.300754 17.2713 0.671752 17.6423L0.742462 17.713C1.11346 18.084 1.81522 17.9838 2.30988 17.4891L17.4891 2.30987C17.9838 1.81521 18.084 1.11345 17.713 0.74245L17.6423 0.67174C17.2713 0.300742 16.5696 0.400993 16.0749 0.895656Z" fill="#baa777" fill-opacity="0.75"/>
<path d="M17.4891 16.0749L2.30985 0.895669C1.81519 0.401004 1.11343 0.300753 0.742433 0.671751L0.671722 0.742462C0.300724 1.11346 0.400976 1.81522 0.89564 2.30988L16.0749 17.4891C16.5695 17.9838 17.2713 18.084 17.6423 17.713L17.713 17.6423C18.084 17.2713 17.9837 16.5696 17.4891 16.0749Z" fill="#BAA777" fill-opacity="0.75"/>
</svg>
