<svg width="31" height="47" viewBox="0 0 31 47" fill="none" xmlns="http://www.w3.org/2000/svg">
<g filter="url(#filter0_dd_300_954)">
<path d="M21.3333 12C16.1733 12 12 16.1733 12 21.3333C12 28.3333 21.3333 38.6667 21.3333 38.6667C21.3333 38.6667 30.6667 28.3333 30.6667 21.3333C30.6667 16.1733 26.4933 12 21.3333 12ZM21.3333 24.6667C20.4493 24.6667 19.6014 24.3155 18.9763 23.6904C18.3512 23.0652 18 22.2174 18 21.3333C18 20.4493 18.3512 19.6014 18.9763 18.9763C19.6014 18.3512 20.4493 18 21.3333 18C22.2174 18 23.0652 18.3512 23.6904 18.9763C24.3155 19.6014 24.6667 20.4493 24.6667 21.3333C24.6667 22.2174 24.3155 23.0652 23.6904 23.6904C23.0652 24.3155 22.2174 24.6667 21.3333 24.6667Z" fill="url(#paint0_linear_300_954)"/>
</g>
<defs>
<filter id="filter0_dd_300_954" x="0" y="0" width="38.6667" height="46.6667" filterUnits="userSpaceOnUse" color-interpolation-filters="sRGB">
<feFlood flood-opacity="0" result="BackgroundImageFix"/>
<feColorMatrix in="SourceAlpha" type="matrix" values="0 0 0 0 0 0 0 0 0 0 0 0 0 0 0 0 0 0 127 0" result="hardAlpha"/>
<feOffset dx="2" dy="2"/>
<feGaussianBlur stdDeviation="2"/>
<feComposite in2="hardAlpha" operator="out"/>
<feColorMatrix type="matrix" values="0 0 0 0 0 0 0 0 0 0 0 0 0 0 0 0 0 0 0.66 0"/>
<feBlend mode="normal" in2="BackgroundImageFix" result="effect1_dropShadow_300_954"/>
<feColorMatrix in="SourceAlpha" type="matrix" values="0 0 0 0 0 0 0 0 0 0 0 0 0 0 0 0 0 0 127 0" result="hardAlpha"/>
<feOffset dx="-2" dy="-2"/>
<feGaussianBlur stdDeviation="5"/>
<feComposite in2="hardAlpha" operator="out"/>
<feColorMatrix type="matrix" values="0 0 0 0 0.764531 0 0 0 0 0.970833 0 0 0 0 0.970833 0 0 0 0.38 0"/>
<feBlend mode="normal" in2="effect1_dropShadow_300_954" result="effect2_dropShadow_300_954"/>
<feBlend mode="normal" in="SourceGraphic" in2="effect2_dropShadow_300_954" result="shape"/>
</filter>
<linearGradient id="paint0_linear_300_954" x1="15.5" y1="12" x2="32.4561" y2="24.5704" gradientUnits="userSpaceOnUse">
<stop offset="0.119792" stop-color="#8DFBF4"/>
<stop offset="0.90625" stop-color="#437C9A"/>
</linearGradient>
</defs>
</svg>
