<svg width="27" height="35" viewBox="0 0 27 35" fill="none" xmlns="http://www.w3.org/2000/svg">
<g filter="url(#filter0_d_506_4438)">
<path d="M13.3333 0C8.17333 0 4 4.17333 4 9.33333C4 16.3333 13.3333 26.6667 13.3333 26.6667C13.3333 26.6667 22.6667 16.3333 22.6667 9.33333C22.6667 4.17333 18.4933 0 13.3333 0ZM13.3333 12.6667C12.4493 12.6667 11.6014 12.3155 10.9763 11.6904C10.3512 11.0652 10 10.2174 10 9.33333C10 8.44928 10.3512 7.60143 10.9763 6.97631C11.6014 6.35119 12.4493 6 13.3333 6C14.2174 6 15.0652 6.35119 15.6904 6.97631C16.3155 7.60143 16.6667 8.44928 16.6667 9.33333C16.6667 10.2174 16.3155 11.0652 15.6904 11.6904C15.0652 12.3155 14.2174 12.6667 13.3333 12.6667Z" fill="url(#paint0_linear_506_4438)"/>
</g>
<defs>
<filter id="filter0_d_506_4438" x="0" y="0" width="26.6667" height="34.6667" filterUnits="userSpaceOnUse" color-interpolation-filters="sRGB">
<feFlood flood-opacity="0" result="BackgroundImageFix"/>
<feColorMatrix in="SourceAlpha" type="matrix" values="0 0 0 0 0 0 0 0 0 0 0 0 0 0 0 0 0 0 127 0" result="hardAlpha"/>
<feOffset dy="4"/>
<feGaussianBlur stdDeviation="2"/>
<feComposite in2="hardAlpha" operator="out"/>
<feColorMatrix type="matrix" values="0 0 0 0 0 0 0 0 0 0 0 0 0 0 0 0 0 0 0.25 0"/>
<feBlend mode="normal" in2="BackgroundImageFix" result="effect1_dropShadow_506_4438"/>
<feBlend mode="normal" in="SourceGraphic" in2="effect1_dropShadow_506_4438" result="shape"/>
</filter>
<linearGradient id="paint0_linear_506_4438" x1="13" y1="-3.77171e-06" x2="27.6013" y2="18.4354" gradientUnits="userSpaceOnUse">
<stop offset="0.119792" stop-color="#F8B271"/>
<stop offset="1" stop-color="#B3365B"/>
</linearGradient>
</defs>
</svg>
